<svg width="44" height="44" viewBox="0 0 44 44" fill="none" xmlns="http://www.w3.org/2000/svg">
<path d="M38.298 18.8894C38.5297 17.3349 38.4537 15.7435 38.07 14.2133C37.5632 12.1919 36.5193 10.2775 34.9385 8.69673C33.3577 7.11595 31.4433 6.07213 29.422 5.56526C27.8918 5.18157 26.3003 5.10557 24.7458 5.33729" stroke="white" stroke-width="3.66667" stroke-linejoin="round"/>
<path d="M31.3405 18.1532C31.5887 16.4879 31.0719 14.7307 29.79 13.4488C28.5081 12.167 26.7508 11.6501 25.0857 11.8983" stroke="white" stroke-width="3.66667" stroke-linejoin="round"/>
<path d="M13.1775 8.0614C13.8436 8.0614 14.4572 8.42259 14.7804 9.00489L17.0231 13.0445C17.3167 13.5734 17.3304 14.2131 17.0599 14.7542L14.8995 19.075C14.8995 19.075 15.5256 22.2939 18.1458 24.9141C20.766 27.5343 23.974 28.1496 23.974 28.1496L28.2942 25.9895C28.8357 25.7188 29.4759 25.7328 30.005 26.0269L34.056 28.2792C34.6377 28.6026 34.9985 29.2159 34.9985 29.8815V34.5322C34.9985 36.9006 32.7986 38.6112 30.5545 37.854C25.9456 36.2988 18.7913 33.3378 14.2567 28.8032C9.72208 24.2686 6.76106 17.1143 5.2059 12.5054C4.44871 10.2613 6.1593 8.0614 8.52764 8.0614H13.1775Z" stroke="white" stroke-width="3.66667" stroke-linejoin="round"/>
</svg>
